<?xml version="1.0" encoding="UTF-8"?>
<svg xmlns="http://www.w3.org/2000/svg" xmlns:xlink="http://www.w3.org/1999/xlink" viewBox="0 0 32 32" width="32px" height="32px">
<g id="surface30184639">
<path style=" stroke:none;fill-rule:nonzero;fill:rgb(100%,100%,100%);fill-opacity:1;" d="M 5.761719 4.480469 L 7.679688 26.238281 L 16.640625 28.800781 L 25.601562 26.238281 C 26.238281 18.988281 26.878906 11.734375 27.519531 4.480469 Z M 7.15625 5.761719 L 26.121094 5.761719 L 24.402344 25.25 L 16.640625 27.46875 L 8.878906 25.25 Z M 11.871094 9.601562 L 11.257812 17.28125 L 19.570312 17.28125 L 19.308594 20.480469 L 16.640625 20.875 L 14.003906 20.480469 L 13.886719 19.199219 L 11.417969 19.199219 L 11.667969 22.398438 L 16.632812 23.679688 L 21.605469 22.398438 L 22.238281 14.71875 L 14.136719 14.71875 L 14.34375 12.160156 L 19.691406 12.160156 L 19.839844 13.441406 L 22.207031 13.441406 L 21.761719 9.601562 Z M 11.871094 9.601562 "/>
</g>
</svg>
